<?xml version="1.0" standalone="no"?>
<!DOCTYPE svg PUBLIC "-//W3C//DTD SVG 20010904//EN"
 "http://www.w3.org/TR/2001/REC-SVG-20010904/DTD/svg10.dtd">
<svg version="1.0" xmlns="http://www.w3.org/2000/svg"
 width="200.000000pt" height="200.000000pt" viewBox="0 0 200.000000 200.000000"
 preserveAspectRatio="xMidYMid meet">

<g transform="translate(0.000000,200.000000) scale(0.100000,-0.100000)"
fill="#000000" stroke="none">
<path d="M328 1073 l-57 -56 -47 31 c-27 17 -50 29 -52 27 -3 -3 15 -104 34
-192 4 -23 6 -23 187 -23 l184 0 16 107 c9 59 15 109 13 110 -1 2 -24 -11 -51
-28 l-48 -30 -56 55 c-31 31 -59 56 -61 56 -3 0 -31 -25 -62 -57z m118 -30
l51 -57 38 22 c20 13 39 22 40 20 2 -2 -2 -34 -9 -72 l-11 -69 -160 2 c-102 2
-162 6 -166 13 -4 6 -10 31 -14 56 -4 24 -9 52 -13 60 -4 12 4 10 32 -7 l38
-24 56 57 c31 31 59 56 62 56 3 0 28 -25 56 -57z"/>
</g>
</svg>
